<svg width="40" height="40" viewBox="0 0 40 40" fill="none" xmlns="http://www.w3.org/2000/svg">
<path d="M0 0H40V40H0V0Z" fill="#0D1117"/>
<path d="M23.7159 16.0909C23.6307 15.3712 23.285 14.8125 22.679 14.4148C22.0729 14.017 21.3295 13.8182 20.4489 13.8182C19.8049 13.8182 19.2415 13.9223 18.7585 14.1307C18.2803 14.339 17.9062 14.6255 17.6364 14.9901C17.3712 15.3546 17.2386 15.7689 17.2386 16.2329C17.2386 16.6212 17.331 16.955 17.5156 17.2344C17.705 17.509 17.9465 17.7386 18.24 17.9233C18.5336 18.1032 18.8414 18.2524 19.1633 18.3707C19.4853 18.4844 19.7812 18.5767 20.0511 18.6477L21.5284 19.0454C21.9072 19.1449 22.3286 19.2822 22.7926 19.4574C23.2614 19.6326 23.7088 19.8717 24.1349 20.1747C24.5658 20.473 24.9209 20.8565 25.2003 21.3253C25.4796 21.794 25.6193 22.3693 25.6193 23.0511C25.6193 23.8371 25.4133 24.5473 25.0014 25.1818C24.5942 25.8163 23.9976 26.3205 23.2116 26.6946C22.4304 27.0687 21.481 27.2557 20.3636 27.2557C19.322 27.2557 18.42 27.0876 17.6577 26.7514C16.9001 26.4152 16.3035 25.9465 15.8679 25.3452C15.437 24.7438 15.1932 24.0455 15.1364 23.25H16.9545C17.0019 23.7992 17.1865 24.2538 17.5085 24.6136C17.8352 24.9687 18.2471 25.2339 18.7443 25.4091C19.2462 25.5795 19.786 25.6648 20.3636 25.6648C21.036 25.6648 21.6397 25.5559 22.1747 25.3381C22.7097 25.1155 23.1335 24.8078 23.446 24.4148C23.7585 24.017 23.9148 23.553 23.9148 23.0227C23.9148 22.5398 23.7798 22.1468 23.5099 21.8437C23.24 21.5407 22.8849 21.2945 22.4446 21.1051C22.0043 20.9157 21.5284 20.75 21.017 20.6079L19.2273 20.0966C18.0909 19.7699 17.1913 19.3035 16.5284 18.6974C15.8655 18.0914 15.5341 17.2983 15.5341 16.3182C15.5341 15.5038 15.7543 14.7936 16.1946 14.1875C16.6397 13.5767 17.2363 13.1032 17.9844 12.767C18.7372 12.4261 19.5776 12.2557 20.5057 12.2557C21.4432 12.2557 22.2765 12.4238 23.0057 12.7599C23.7348 13.0914 24.3125 13.5459 24.7386 14.1236C25.1695 14.7012 25.3968 15.357 25.4204 16.0909H23.7159Z" fill="#8BAFC7"/>
</svg>
